<svg width="34" height="34" viewBox="0 0 34 34" fill="none" xmlns="http://www.w3.org/2000/svg">
<g clip-path="url(#clip0_45_10)">
<path d="M14.5773 16.9826L21.4307 16.9477M27.0345 18.3332L14.7747 24.904C13.676 25.4929 13.1263 25.7874 12.7626 25.7054C12.4472 25.6342 12.1857 25.4157 12.0606 25.1175C11.9164 24.7737 12.1103 24.1804 12.4986 22.9954L14.3026 17.4899C14.3642 17.3019 14.3947 17.2081 14.4067 17.112C14.4172 17.0267 14.4174 16.9406 14.4059 16.8554C14.3933 16.7616 14.3622 16.6699 14.3015 16.4909L12.4371 10.9914C12.0367 9.81046 11.8367 9.21978 11.9774 8.87446C12.0994 8.57499 12.3586 8.35333 12.6733 8.27896C13.0362 8.19321 13.589 8.48189 14.694 9.05969L27.0203 15.505C27.889 15.9593 28.3234 16.1866 28.4666 16.4918C28.5913 16.7577 28.5931 17.0648 28.4711 17.332C28.3311 17.6385 27.8991 17.87 27.0359 18.3326L27.0345 18.3332Z" stroke="white" stroke-width="2" stroke-linecap="round" stroke-linejoin="round"/>
</g>
<defs>
<clipPath id="clip0_45_10">
<rect width="24" height="24" fill="white" transform="translate(16.8838) rotate(44.7075)"/>
</clipPath>
</defs>
</svg>
